<mxfile host="app.diagrams.net" modified="2023-05-27T18:25:22.300Z" agent="Mozilla/5.0 (Windows NT 10.0; Win64; x64) AppleWebKit/537.36 (KHTML, like Gecko) Chrome/113.0.0.0 Safari/537.36" etag="ZIQLPCVvqzQeqlaMhFjd" version="21.3.4" type="github">
  <diagram name="Page-1" id="a46aFSP0Gx5_XuOde9V2">
    <mxGraphModel dx="574" dy="318" grid="1" gridSize="10" guides="1" tooltips="1" connect="1" arrows="1" fold="1" page="1" pageScale="1" pageWidth="850" pageHeight="1100" math="0" shadow="0">
      <root>
        <mxCell id="0" />
        <mxCell id="1" parent="0" />
        <mxCell id="Bng7RH6TCdFy--lSWQhc-2" style="edgeStyle=orthogonalEdgeStyle;rounded=0;orthogonalLoop=1;jettySize=auto;html=1;" edge="1" parent="1" source="Bng7RH6TCdFy--lSWQhc-1">
          <mxGeometry relative="1" as="geometry">
            <mxPoint x="160" y="240" as="targetPoint" />
          </mxGeometry>
        </mxCell>
        <mxCell id="Bng7RH6TCdFy--lSWQhc-4" style="edgeStyle=orthogonalEdgeStyle;rounded=0;orthogonalLoop=1;jettySize=auto;html=1;" edge="1" parent="1" source="Bng7RH6TCdFy--lSWQhc-1">
          <mxGeometry relative="1" as="geometry">
            <mxPoint x="480" y="240" as="targetPoint" />
          </mxGeometry>
        </mxCell>
        <mxCell id="Bng7RH6TCdFy--lSWQhc-1" value="We need to find the password&lt;br&gt;It consists of" style="text;html=1;align=center;verticalAlign=middle;resizable=0;points=[];autosize=1;strokeColor=none;fillColor=none;fontStyle=0;strokeWidth=0;" vertex="1" parent="1">
          <mxGeometry x="220" y="150" width="190" height="40" as="geometry" />
        </mxCell>
        <mxCell id="Bng7RH6TCdFy--lSWQhc-10" style="edgeStyle=orthogonalEdgeStyle;rounded=0;orthogonalLoop=1;jettySize=auto;html=1;entryX=0.505;entryY=-0.078;entryDx=0;entryDy=0;entryPerimeter=0;" edge="1" parent="1" source="Bng7RH6TCdFy--lSWQhc-3">
          <mxGeometry relative="1" as="geometry">
            <mxPoint x="316.1" y="317.65999999999997" as="targetPoint" />
          </mxGeometry>
        </mxCell>
        <mxCell id="Bng7RH6TCdFy--lSWQhc-3" value="Two Integers" style="text;html=1;align=center;verticalAlign=middle;resizable=0;points=[];autosize=1;strokeColor=none;fillColor=none;" vertex="1" parent="1">
          <mxGeometry x="105" y="238" width="90" height="30" as="geometry" />
        </mxCell>
        <mxCell id="Bng7RH6TCdFy--lSWQhc-11" style="edgeStyle=orthogonalEdgeStyle;rounded=0;orthogonalLoop=1;jettySize=auto;html=1;entryX=0.505;entryY=-0.078;entryDx=0;entryDy=0;entryPerimeter=0;" edge="1" parent="1" source="Bng7RH6TCdFy--lSWQhc-5">
          <mxGeometry relative="1" as="geometry">
            <mxPoint x="316.1" y="317.65999999999997" as="targetPoint" />
          </mxGeometry>
        </mxCell>
        <mxCell id="Bng7RH6TCdFy--lSWQhc-5" value="A word" style="text;html=1;align=center;verticalAlign=middle;resizable=0;points=[];autosize=1;strokeColor=none;fillColor=none;" vertex="1" parent="1">
          <mxGeometry x="450" y="238" width="60" height="30" as="geometry" />
        </mxCell>
        <mxCell id="Bng7RH6TCdFy--lSWQhc-12" value="" style="rounded=0;whiteSpace=wrap;html=1;" vertex="1" parent="1">
          <mxGeometry x="190" y="330" width="260" height="60" as="geometry" />
        </mxCell>
        <mxCell id="Bng7RH6TCdFy--lSWQhc-13" value="And it the format of the password is" style="text;html=1;align=center;verticalAlign=middle;resizable=0;points=[];autosize=1;strokeColor=none;fillColor=none;" vertex="1" parent="1">
          <mxGeometry x="210" y="345" width="220" height="30" as="geometry" />
        </mxCell>
        <mxCell id="Bng7RH6TCdFy--lSWQhc-21" style="edgeStyle=orthogonalEdgeStyle;rounded=0;orthogonalLoop=1;jettySize=auto;html=1;" edge="1" parent="1" source="Bng7RH6TCdFy--lSWQhc-16" target="Bng7RH6TCdFy--lSWQhc-18">
          <mxGeometry relative="1" as="geometry" />
        </mxCell>
        <mxCell id="Bng7RH6TCdFy--lSWQhc-16" value="prefix of the word" style="text;html=1;align=center;verticalAlign=middle;resizable=0;points=[];autosize=1;strokeColor=none;fillColor=none;" vertex="1" parent="1">
          <mxGeometry x="20" y="420" width="120" height="30" as="geometry" />
        </mxCell>
        <mxCell id="Bng7RH6TCdFy--lSWQhc-20" style="edgeStyle=orthogonalEdgeStyle;rounded=0;orthogonalLoop=1;jettySize=auto;html=1;" edge="1" parent="1" source="Bng7RH6TCdFy--lSWQhc-18">
          <mxGeometry relative="1" as="geometry">
            <mxPoint x="480" y="435" as="targetPoint" />
          </mxGeometry>
        </mxCell>
        <mxCell id="Bng7RH6TCdFy--lSWQhc-23" style="edgeStyle=orthogonalEdgeStyle;rounded=0;orthogonalLoop=1;jettySize=auto;html=1;" edge="1" parent="1" source="Bng7RH6TCdFy--lSWQhc-18">
          <mxGeometry relative="1" as="geometry">
            <mxPoint x="310" y="480" as="targetPoint" />
          </mxGeometry>
        </mxCell>
        <mxCell id="Bng7RH6TCdFy--lSWQhc-18" value="The Product of the numbers" style="text;html=1;align=center;verticalAlign=middle;resizable=0;points=[];autosize=1;strokeColor=none;fillColor=none;" vertex="1" parent="1">
          <mxGeometry x="220" y="420" width="180" height="30" as="geometry" />
        </mxCell>
        <mxCell id="Bng7RH6TCdFy--lSWQhc-22" value="Suffix of the word" style="text;html=1;align=center;verticalAlign=middle;resizable=0;points=[];autosize=1;strokeColor=none;fillColor=none;" vertex="1" parent="1">
          <mxGeometry x="480" y="420" width="120" height="30" as="geometry" />
        </mxCell>
        <mxCell id="Bng7RH6TCdFy--lSWQhc-24" value="x &amp;gt;= -100&lt;br&gt;y &amp;lt; 100" style="text;html=1;align=center;verticalAlign=middle;resizable=0;points=[];autosize=1;strokeColor=none;fillColor=none;" vertex="1" parent="1">
          <mxGeometry x="275" y="483" width="70" height="40" as="geometry" />
        </mxCell>
        <mxCell id="Bng7RH6TCdFy--lSWQhc-32" style="edgeStyle=orthogonalEdgeStyle;rounded=0;orthogonalLoop=1;jettySize=auto;html=1;" edge="1" parent="1" source="Bng7RH6TCdFy--lSWQhc-25">
          <mxGeometry relative="1" as="geometry">
            <mxPoint x="190" y="563" as="targetPoint" />
          </mxGeometry>
        </mxCell>
        <mxCell id="Bng7RH6TCdFy--lSWQhc-25" value="Expected input" style="text;html=1;align=center;verticalAlign=middle;resizable=0;points=[];autosize=1;strokeColor=none;fillColor=none;" vertex="1" parent="1">
          <mxGeometry y="548" width="100" height="30" as="geometry" />
        </mxCell>
        <mxCell id="Bng7RH6TCdFy--lSWQhc-28" style="edgeStyle=orthogonalEdgeStyle;rounded=0;orthogonalLoop=1;jettySize=auto;html=1;" edge="1" parent="1" source="Bng7RH6TCdFy--lSWQhc-27">
          <mxGeometry relative="1" as="geometry">
            <mxPoint x="330" y="563" as="targetPoint" />
          </mxGeometry>
        </mxCell>
        <mxCell id="Bng7RH6TCdFy--lSWQhc-27" value="X&lt;br&gt;larger than -100&lt;br&gt;" style="text;html=1;align=center;verticalAlign=middle;resizable=0;points=[];autosize=1;strokeColor=none;fillColor=none;" vertex="1" parent="1">
          <mxGeometry x="195" y="543" width="110" height="40" as="geometry" />
        </mxCell>
        <mxCell id="Bng7RH6TCdFy--lSWQhc-33" style="edgeStyle=orthogonalEdgeStyle;rounded=0;orthogonalLoop=1;jettySize=auto;html=1;" edge="1" parent="1" source="Bng7RH6TCdFy--lSWQhc-29">
          <mxGeometry relative="1" as="geometry">
            <mxPoint x="520" y="563" as="targetPoint" />
          </mxGeometry>
        </mxCell>
        <mxCell id="Bng7RH6TCdFy--lSWQhc-29" value="Y&lt;br&gt;smaller than 100" style="text;html=1;align=center;verticalAlign=middle;resizable=0;points=[];autosize=1;strokeColor=none;fillColor=none;" vertex="1" parent="1">
          <mxGeometry x="345" y="543" width="120" height="40" as="geometry" />
        </mxCell>
        <mxCell id="Bng7RH6TCdFy--lSWQhc-31" value="Word length&lt;br&gt;2,4" style="text;html=1;align=center;verticalAlign=middle;resizable=0;points=[];autosize=1;strokeColor=none;fillColor=none;" vertex="1" parent="1">
          <mxGeometry x="530" y="548" width="90" height="40" as="geometry" />
        </mxCell>
        <mxCell id="Bng7RH6TCdFy--lSWQhc-36" style="edgeStyle=orthogonalEdgeStyle;rounded=0;orthogonalLoop=1;jettySize=auto;html=1;" edge="1" parent="1" source="Bng7RH6TCdFy--lSWQhc-35">
          <mxGeometry relative="1" as="geometry">
            <mxPoint x="240" y="690" as="targetPoint" />
          </mxGeometry>
        </mxCell>
        <mxCell id="Bng7RH6TCdFy--lSWQhc-35" value="Input example&lt;br&gt;10 2 4&lt;br&gt;nemo" style="whiteSpace=wrap;html=1;aspect=fixed;" vertex="1" parent="1">
          <mxGeometry x="20" y="650" width="80" height="80" as="geometry" />
        </mxCell>
        <mxCell id="Bng7RH6TCdFy--lSWQhc-38" value="Output expected&lt;br&gt;ne20mo" style="whiteSpace=wrap;html=1;aspect=fixed;" vertex="1" parent="1">
          <mxGeometry x="250" y="650" width="80" height="80" as="geometry" />
        </mxCell>
        <mxCell id="Bng7RH6TCdFy--lSWQhc-42" style="edgeStyle=orthogonalEdgeStyle;rounded=0;orthogonalLoop=1;jettySize=auto;html=1;" edge="1" parent="1" source="Bng7RH6TCdFy--lSWQhc-39">
          <mxGeometry relative="1" as="geometry">
            <mxPoint x="285" y="970" as="targetPoint" />
          </mxGeometry>
        </mxCell>
        <mxCell id="Bng7RH6TCdFy--lSWQhc-39" value="input&amp;nbsp; three ints" style="whiteSpace=wrap;html=1;aspect=fixed;" vertex="1" parent="1">
          <mxGeometry x="240" y="820" width="90" height="90" as="geometry" />
        </mxCell>
        <mxCell id="Bng7RH6TCdFy--lSWQhc-41" style="edgeStyle=orthogonalEdgeStyle;rounded=0;orthogonalLoop=1;jettySize=auto;html=1;" edge="1" parent="1" source="Bng7RH6TCdFy--lSWQhc-40">
          <mxGeometry relative="1" as="geometry">
            <mxPoint x="285" y="810" as="targetPoint" />
          </mxGeometry>
        </mxCell>
        <mxCell id="Bng7RH6TCdFy--lSWQhc-40" value="Solution" style="text;html=1;align=center;verticalAlign=middle;resizable=0;points=[];autosize=1;strokeColor=none;fillColor=none;" vertex="1" parent="1">
          <mxGeometry x="250" y="748" width="70" height="30" as="geometry" />
        </mxCell>
        <mxCell id="Bng7RH6TCdFy--lSWQhc-44" style="edgeStyle=orthogonalEdgeStyle;rounded=0;orthogonalLoop=1;jettySize=auto;html=1;" edge="1" parent="1" source="Bng7RH6TCdFy--lSWQhc-43">
          <mxGeometry relative="1" as="geometry">
            <mxPoint x="285" y="1130" as="targetPoint" />
          </mxGeometry>
        </mxCell>
        <mxCell id="Bng7RH6TCdFy--lSWQhc-43" value="input the word&lt;br&gt;two or 4 english small letters" style="whiteSpace=wrap;html=1;aspect=fixed;" vertex="1" parent="1">
          <mxGeometry x="245" y="980" width="80" height="80" as="geometry" />
        </mxCell>
        <mxCell id="Bng7RH6TCdFy--lSWQhc-46" style="edgeStyle=orthogonalEdgeStyle;rounded=0;orthogonalLoop=1;jettySize=auto;html=1;" edge="1" parent="1" source="Bng7RH6TCdFy--lSWQhc-45">
          <mxGeometry relative="1" as="geometry">
            <mxPoint x="285" y="1310" as="targetPoint" />
          </mxGeometry>
        </mxCell>
        <mxCell id="Bng7RH6TCdFy--lSWQhc-45" value="get the word length&lt;br&gt;divide it by 2" style="whiteSpace=wrap;html=1;aspect=fixed;" vertex="1" parent="1">
          <mxGeometry x="245" y="1140" width="80" height="80" as="geometry" />
        </mxCell>
        <mxCell id="Bng7RH6TCdFy--lSWQhc-47" value="loop into the length/2&lt;br&gt;print the prefix untill length/2&lt;br&gt;then print the product&lt;br&gt;then print the suffix length/2 times" style="whiteSpace=wrap;html=1;aspect=fixed;" vertex="1" parent="1">
          <mxGeometry x="205" y="1310" width="160" height="160" as="geometry" />
        </mxCell>
      </root>
    </mxGraphModel>
  </diagram>
</mxfile>
